# AST/ASF file generated using VICON BodyLanguage
# -----------------------------------------------
:version 1.10
:name VICON
:units
  mass 1.0
  length 0.45
  angle deg
:documentation
   .ast/.asf automatically generated from VICON data using
   VICON BodyBuilder and BodyLanguage model FoxedUp or BRILLIANT.MOD
:root
   order TX TY TZ RX RY RZ
   axis XYZ
   position 0 0 0  
   orientation 0 0 0 
:bonedata
  begin
     id 1 
     name lhipjoint
     direction 0.521689 -0.742065 0.420928 
     length 2.47002 
     axis 0 0 0  XYZ
  end
  begin
     id 2 
     name lfemur
     direction 0.34202 -0.939693 0  
     length 7.24654  
     axis 0 0 20  XYZ
    dof rx ry rz
    limits (-160.0 20.0)
           (-70.0 70.0)
           (-60.0 70.0)
  end
  begin
     id 3 
     name ltibia
     direction 0.34202 -0.939693 0   
     length 8.04849   
     axis 0 0 20   XYZ
    dof rx
    limits (-10.0 170.0)
  end
  begin
     id 4 
     name lfoot
     direction 0.0745411 -0.2048 0.975961   
     length 1.72367   
     axis -90 7.62852e-016 20   XYZ
    dof rx rz
    limits (-45.0 90.0)
           (-70.0 20.0)
  end
  begin
     id 5 
     name ltoes
     direction 1.53556e-011 -4.21901e-011 1   
     length 0.87311   
     axis -90 7.62852e-016 20   XYZ
    dof rx
    limits (-90.0 20.0)
  end
  begin
     id 6 
     name rhipjoint
     direction -0.52849 -0.738415 0.418857   
     length 2.48223  
     axis 0 0 0  XYZ 
  end
  begin
     id 7 
     name rfemur
     direction -0.34202 -0.939693 0   
     length 7.15571   
     axis 0 0 -20   XYZ
    dof rx ry rz
    limits (-160.0 20.0)
           (-70.0 70.0)
           (-70.0 60.0)
  end
  begin
     id 8 
     name rtibia
     direction -0.34202 -0.939693 0   
     length 7.81659   
     axis 0 0 -20   XYZ
    dof rx
    limits (-10.0 170.0)
 end
 begin
     id 9 
     name rfoot
     direction -0.0917348 -0.252039 0.963359   
     length 1.84382  
     axis -90 -7.62852e-016 -20   XYZ
    dof rx rz
    limits (-45.0 90.0)
           (-20.0 70.0)
  end
  begin
     id 10 
     name rtoes
     direction -1.53551e-011 -4.21879e-011 1   
     length 0.927771   
     axis -90 -7.62852e-016 -20   XYZ
    dof rx
    limits (-90.0 20.0)
  end
  begin
     id 11 
     name lowerback
     direction 0.00583058 0.999822 0.0179296   
     length 2.1429   
     axis 0 0 0   XYZ
    dof rx ry rz
    limits (-20.0 45.0)
           (-30.0 30.0)
           (-30.0 30.0)
  end
  begin
     id 12 
     name upperback
     direction -0.0137999 0.999752 -0.0175071   
     length 2.14252   
     axis 0 0 0   XYZ
    dof rx ry rz
    limits (-20.0 45.0)
           (-30.0 30.0)
           (-30.0 30.0)
  end
  begin
     id 13 
     name thorax
     direction -0.0158036 0.99955 -0.0254909   
     length 2.1383   
     axis 0 0 0   XYZ
    dof rx ry rz
    limits (-20.0 45.0)
           (-30.0 30.0)
           (-30.0 30.0)
  end
  begin
     id 14 
     name lowerneck
     direction -0.0101179 0.999403 -0.0330262   
     length 1.65808   
     axis 0 0 0   XYZ
    dof rx ry rz
    limits (-20.0 45.0)
           (-30.0 30.0)
           (-30.0 30.0)
  end
  begin
     id 15 
     name upperneck
     direction 0.0497734 0.995978 -0.074501   
     length 1.5897   
     axis 0 0 0   XYZ
    dof rx ry rz
    limits (-20.0 45.0)
           (-30.0 30.0)
           (-30.0 30.0)
  end
  begin
     id 16
     name head
     direction 0.0189524 0.999519 -0.0245438  
     length 1.74024  
     axis 0 0 0   XYZ
    dof rx ry rz
    limits (-20.0 45.0)
           (-30.0 30.0)
           (-30.0 30.0)
  end
  begin
     id 17 
     name lclavicle
     direction 0.945604 0.324422 0.0241537  
     length 3.59089  
     axis 0 0 0   XYZ
    dof ry rz
    limits (-20.0 10.0)
           (0.0 20.0)
  end
  begin
     id 18 
     name lhumerus
     direction 1 -4.48964e-011 -2.63524e-027   
     length 5.2391   
     axis 180 -30 -90   XYZ
    dof rx ry rz
    limits (-60.0 90.0)
           (-90.0 90.0)
           (-90.0 90.0)
  end
  begin
     id 19
     name lradius
     direction 1 -4.48969e-011 3.86978e-028   
     length 3.31467   
     axis 180 -30 -90   XYZ
    dof rx
    limits (-10.0 170.0)
  end
  begin
     id 20
     name lwrist
     direction 1 -4.48963e-011 7.20928e-028   
     length 1.65734   
     axis -5.52449e-016 90 90   XYZ
    dof ry
    limits (-180.0 0.0)
 end
  begin
     id 21 
     name lhand
     direction 1 -4.48964e-011 1.44186e-027   
     length 0.9659   
     axis -9.20027e-016 90 90   XYZ
    dof rx rz
    limits (-90.0 90.0)
           (-45.0 45.0)
  end
  begin
     id 22 
     name lfingers
     direction 1 -4.48965e-011 2.88371e-027   
     length 0.778733   
     axis -1.84005e-015 90 90   XYZ
    dof rx
    limits (0.0 90.0)
  end
  begin
     id 23
     name lthumb
     direction 0.707107 -6.34931e-011 0.707107   
     length 1.11811   
     axis -90 45 2.85299e-015   XYZ
    dof rx rz
    limits (-45.0 45.0)
           (-45.0 45.0)
  end
  begin
     id 24 
     name rclavicle
     direction -0.923762 0.370785 0.0958234   
     length 3.54196  
     axis 0 0 0   XYZ 
    dof ry rz
    limits (-10.0 20.0)
           (-20.0 0.0)
  end
  begin
     id 25 
     name rhumerus
     direction -1 -4.48966e-011 1.18702e-017  
     length 5.30252   
     axis 180 30 90   XYZ
    dof rx ry rz
    limits (-90.0 60.0)
           (-90.0 90.0)
           (-90.0 90.0)
  end
  begin
     id 26 
     name rradius
     direction -1 -4.48966e-011 4.46736e-027   
     length 3.67875   
     axis 180 30 90   XYZ
    dof rx
    limits (-10.0 170.0)
  end
  begin
     id 27 
     name rwrist
     direction -1 -4.48966e-011 7.20928e-028   
     length 1.83937   
     axis -5.52449e-016 -90 -90   XYZ
    dof ry
    limits (-180.0 0.0)
  end
  begin
     id 28
     name rhand
     direction -1 -4.48973e-011 1.44186e-027   
     length 0.594811   
     axis -9.20027e-016 -90 -90   XYZ
    dof rx rz
    limits (-90.0 90.0)
           (-45.0 45.0)
  end
  begin
     id 29
     name rfingers
     direction -1 -4.48963e-011 2.88371e-027   
     length 0.479552   
     axis -1.84005e-015 -90 -90   XYZ
    dof rx
    limits (0.0 90.0)
  end
  begin
     id 30
     name rthumb
     direction -0.707107 -6.34932e-011 0.707107   
     length 0.688544   
     axis -90 -45 -2.85299e-015   XYZ
    dof rx rz
    limits (-45.0 45.0)
           (-45.0 45.0)
  end
:hierarchy
  begin
    root lhipjoint rhipjoint lowerback
    lhipjoint lfemur
    lfemur ltibia
    ltibia lfoot
    lfoot ltoes
    rhipjoint rfemur
    rfemur rtibia
    rtibia rfoot
    rfoot rtoes
    lowerback upperback
    upperback thorax
    thorax lowerneck lclavicle rclavicle
    lowerneck upperneck
    upperneck head
    lclavicle lhumerus
    lhumerus lradius
    lradius lwrist
    lwrist lhand lthumb
    lhand lfingers
    rclavicle rhumerus
    rhumerus rradius
    rradius rwrist
    rwrist rhand rthumb
    rhand rfingers
  end

#!OML:ASF E:\acrobat2\Project_11_07_03\Capture day 1\Session 1\Acrobat.ASF
:FULLY-SPECIFIED
:DEGREES
173
root 8.81755 18.2482 21.9008 6.99639 1.77472 0.713983
lowerback -9.18558 0.383144 -0.260311
upperback -3.7965 0.570052 -1.87259
thorax 1.23143 0.275733 -1.72931
lowerneck 1.51219 -2.10694 -0.395671
upperneck 3.62477 -2.91932 3.75879
head 0.928334 -1.43095 1.21316
rclavicle -4.52235e-015 2.34566e-014
rhumerus -40.658 0.00698464 -88.132
rradius 25.7221
rwrist 5.81913
rhand -6.45228 -40.5963
rfingers 7.12502
rthumb 19.3975 -69.6488
lclavicle -4.52235e-015 2.34566e-014
lhumerus -35.1625 -19.6295 94.5293
lradius 20.2875
lwrist 12.9441
lhand -8.57005 -9.22126
lfingers 7.12502
lthumb 17.3603 20.0234
rfemur -1.34981 5.26906 21.2323
rtibia 3.81305
rfoot -17.6133 -15.8214
rtoes 9.54251
lfemur -3.46082 -2.79917 -20.7318
ltibia 5.79711
lfoot -5.611 -7.12765
ltoes 42.259
174
root 8.81753 18.2484 21.8984 6.97686 1.74365 0.610453
lowerback -9.14817 0.417709 -0.144047
upperback -3.77559 0.605436 -1.84627
thorax 1.2344 0.292718 -1.76409
lowerneck 1.53934 -2.10549 -0.531509
upperneck 3.5398 -2.919 3.88913
head 0.902237 -1.4327 1.27795
rclavicle 8.44835e-016 -5.96354e-015
rhumerus -40.5993 0.0125076 -88.1287
rradius 25.6527
rwrist 5.75832
rhand -6.46741 -40.5762
rfingers 7.12502
rthumb 19.383 -69.6302
lclavicle 8.44835e-016 -5.96354e-015
lhumerus -35.1158 -19.5042 94.481
lradius 20.2327
lwrist 12.7286
lhand -8.65982 -9.41451
lfingers 7.12502
lthumb 17.2739 19.8378
rfemur -1.34767 5.32243 21.3736
rtibia 3.85442
rfoot -17.7292 -15.8565
rtoes 8.98005
lfemur -3.45776 -2.81964 -20.6004
ltibia 5.80994
lfoot -5.61181 -7.14385
ltoes 42.4013
175
root 8.81865 18.2482 21.8976 6.93893 1.71336 0.47569
lowerback -9.11606 0.436554 0.00348547
upperback -3.74212 0.617081 -1.79319
thorax 1.25266 0.297878 -1.79112
lowerneck 1.51587 -2.10433 -0.555625
upperneck 3.52686 -2.91841 3.92837
head 0.903338 -1.43228 1.29428
rclavicle -7.45443e-016 -1.19271e-015
rhumerus -40.5281 0.0594073 -88.1186
rradius 25.5978
rwrist 5.72369
rhand -6.44568 -40.5981
rfingers 7.12502
rthumb 19.4039 -69.65
lclavicle -7.45443e-016 -1.19271e-015
lhumerus -35.055 -19.3376 94.4297
lradius 20.2058
lwrist 12.5454
lhand -8.65961 -9.46031
lfingers 7.12502
lthumb 17.2741 19.792
rfemur -1.32925 5.2343 21.5382
rtibia 3.90633
rfoot -17.7339 -15.7934
rtoes 8.5477
lfemur -3.41797 -2.79964 -20.4393
ltibia 5.80296
lfoot -5.65579 -7.15885
ltoes 42.2241
176
root 8.81933 18.2468 21.895 6.93101 1.69372 0.456995
lowerback -9.14275 0.430165 0.0374275
upperback -3.68643 0.606397 -1.77469
thorax 1.32475 0.292876 -1.79184
lowerneck 1.39897 -2.09015 -0.565268
upperneck 3.59647 -2.903 3.94242
head 0.944804 -1.42245 1.2992
rclavicle 1.93815e-015 -2.38542e-015
rhumerus -40.4352 0.123008 -88.1308
rradius 25.5729
rwrist 5.79528
rhand -6.34527 -40.5087
rfingers 7.12502
rthumb 19.5004 -69.5508
lclavicle 1.93815e-015 -2.38542e-015
lhumerus -35.0107 -19.2973 94.3907
lradius 20.2659
lwrist 12.4868
lhand -8.65429 -9.37949
lfingers 7.12502
lthumb 17.2792 19.8723
rfemur -1.36786 5.24644 21.556
rtibia 3.97099
rfoot -17.7095 -15.7547
rtoes 8.94507
lfemur -3.42527 -2.75648 -20.4138
ltibia 5.80751
lfoot -5.69081 -7.13401
ltoes 42.3081
177
root 8.81908 18.246 21.8919 6.94417 1.67163 0.556293
lowerback -9.16068 0.418578 -0.0550852
upperback -3.66245 0.599674 -1.78802
thorax 1.35844 0.290298 -1.75404
lowerneck 1.31807 -2.09231 -0.611692
upperneck 3.66989 -2.90807 3.90732
head 0.981621 -1.42415 1.29514
rclavicle -2.5345e-015 3.73715e-014
rhumerus -40.3934 0.207403 -88.132
rradius 25.5385
rwrist 5.83795
rhand -6.2222 -40.5388
rfingers 7.12502
rthumb 19.6187 -69.5689
lclavicle -2.5345e-015 3.73715e-014
lhumerus -34.9854 -19.1904 94.3478
lradius 20.2885
lwrist 12.3488
lhand -8.72152 -9.32576
lfingers 7.12502
lthumb 17.2145 19.9317
rfemur -1.42191 5.2136 21.4303
rtibia 4.02058
rfoot -17.6077 -15.7019
rtoes 8.69186
lfemur -3.46111 -2.75545 -20.5348
ltibia 5.82664
lfoot -5.71844 -7.10468
ltoes 42.5861
178
root 8.81912 18.2467 21.8909 6.94613 1.64192 0.603705
lowerback -9.13833 0.41271 -0.111905
upperback -3.67831 0.596077 -1.78242
thorax 1.32904 0.288766 -1.71678
lowerneck 1.38973 -2.0914 -0.576709
upperneck 3.6559 -2.90318 3.81782
head 0.962631 -1.42302 1.26159
rclavicle -3.32964e-015 -1.11319e-014
rhumerus -40.3996 0.274139 -88.1271
rradius 25.4617
rwrist 5.822
rhand -6.15659 -40.7248
rfingers 7.12502
rthumb 19.6818 -69.7485
lclavicle -3.32964e-015 -1.11319e-014
lhumerus -34.9591 -18.8916 94.2566
lradius 20.2416
lwrist 12.1081
lhand -8.71803 -9.26766
lfingers 7.12502
lthumb 17.2178 19.9895
rfemur -1.4324 5.21308 21.3654
rtibia 4.02308
rfoot -17.5882 -15.6493
rtoes 8.66745
lfemur -3.46365 -2.77948 -20.5988
ltibia 5.83494
lfoot -5.75385 -7.13074
ltoes 42.4941
